<?xml version="1.0" encoding="UTF-8" standalone="no"?>
<!-- Created with Inkscape (http://www.inkscape.org/) -->
<svg
   xmlns:dc="http://purl.org/dc/elements/1.1/"
   xmlns:cc="http://web.resource.org/cc/"
   xmlns:rdf="http://www.w3.org/1999/02/22-rdf-syntax-ns#"
   xmlns:svg="http://www.w3.org/2000/svg"
   xmlns="http://www.w3.org/2000/svg"
   xmlns:sodipodi="http://sodipodi.sourceforge.net/DTD/sodipodi-0.dtd"
   xmlns:inkscape="http://www.inkscape.org/namespaces/inkscape"
   width="1662"
   height="552.85651"
   id="svg5648"
   sodipodi:version="0.32"
   inkscape:version="0.45.1"
   version="1.0"
   sodipodi:docbase="C:\Documents and Settings\Jim\Desktop\Wikipedia\Geometric Series"
   sodipodi:docname="Geometric Segment.svg"
   inkscape:output_extension="org.inkscape.output.svg.inkscape">
  <sodipodi:namedview
     id="base"
     pagecolor="#ffffff"
     bordercolor="#666666"
     borderopacity="1.0"
     gridtolerance="10000"
     guidetolerance="10"
     objecttolerance="10"
     inkscape:pageopacity="0.0"
     inkscape:pageshadow="2"
     inkscape:zoom="0.28249097"
     inkscape:cx="951.02426"
     inkscape:cy="240.18109"
     inkscape:document-units="px"
     inkscape:current-layer="layer1"
     height="600px"
     width="1662px"
     inkscape:window-width="1024"
     inkscape:window-height="708"
     inkscape:window-x="-4"
     inkscape:window-y="30" />
  <defs
     id="defs5650" />
  <metadata
     id="metadata5653">
    <rdf:RDF>
      <cc:Work
         rdf:about="">
        <dc:format>image/svg+xml</dc:format>
        <dc:type
           rdf:resource="http://purl.org/dc/dcmitype/StillImage" />
      </cc:Work>
    </rdf:RDF>
  </metadata>
  <g
     inkscape:label="Layer 1"
     id="layer1"
     transform="translate(456,-333.0057)"
     inkscape:groupmode="layer">
    <rect
       y="594.86218"
       x="-453"
       height="288"
       style="fill:#ecd18e;stroke:none;stroke-linejoin:miter"
       id="rect5554"
       width="1656" />
    <path
       style="fill:none;fill-rule:nonzero;stroke:#000000;stroke-width:6px;stroke-linecap:butt;stroke-linejoin:round"
       id="path5556"
       d="M 315,594.86218 L 315,738.86218 M 699,594.86218 L 699,666.86218 M -69,594.86218 L -69,666.86218 M 123,594.86218 L 123,630.86218 M 507,594.86218 L 507,630.86218 M -261,594.86218 L -261,630.86218 M 891,594.86218 L 891,630.86218 M -165,594.86218 L -165,612.86218 M -357,594.86218 L -357,612.86218 M 27,594.86218 L 27,612.86218 M 219,594.86218 L 219,612.86218 M 411,594.86218 L 411,612.86218 M 603,594.86218 L 603,612.86218 M 795,594.86218 L 795,612.86218 M 987,594.86218 L 987,612.86218 M 1083,594.86218 L 1083,882.86218 M 1203,594.86218 L -453,594.86218 L -453,882.86218 L 1203,882.86218 M 1179,594.86218 L 1179,612.86218" />
    <path
       style="fill:none;fill-rule:nonzero;stroke:#993300;stroke-width:6px;stroke-linecap:butt;stroke-linejoin:round"
       id="path5560"
       d="M -453,570.86218 L -453,474.86218" />
    <path
       style="fill:#000000;fill-rule:nonzero;stroke:none;stroke-linecap:round;stroke-linejoin:round"
       id="path5562"
       d="M -445,519.86218 L 307,519.86218 L 307,525.86218 L -445,525.86218 L -445,519.86218 z M -423,539.86218 L -451,522.86218 L -423,505.86218 L -420,505.86218 L -418,506.86218 L -418,509.86218 L -420,511.86218 L -444,525.86218 L -444,519.86218 L -420,533.86218 L -418,535.86218 L -418,537.86218 L -420,539.86218 L -423,539.86218 z M 284,505.86218 L 313,522.86218 L 284,539.86218 L 282,539.86218 L 280,537.86218 L 280,535.86218 L 281,533.86218 L 305,519.86218 L 305,525.86218 L 281,511.86218 L 280,509.86218 L 280,506.86218 L 282,505.86218 L 284,505.86218 z " />
    <path
       style="fill:#000000;fill-rule:nonzero;stroke:none;stroke-linecap:round;stroke-linejoin:round"
       id="path5564"
       d="M 323,519.86218 L 691,519.86218 L 691,525.86218 L 323,525.86218 L 323,519.86218 z M 345,539.86218 L 317,522.86218 L 345,505.86218 L 348,505.86218 L 350,506.86218 L 350,509.86218 L 348,511.86218 L 324,525.86218 L 324,519.86218 L 348,533.86218 L 350,535.86218 L 350,537.86218 L 348,539.86218 L 345,539.86218 z M 668,505.86218 L 697,522.86218 L 668,539.86218 L 666,539.86218 L 664,537.86218 L 664,535.86218 L 665,533.86218 L 689,519.86218 L 689,525.86218 L 665,511.86218 L 664,509.86218 L 664,506.86218 L 666,505.86218 L 668,505.86218 z " />
    <path
       style="fill:#000000;fill-rule:nonzero;stroke:none;stroke-linecap:round;stroke-linejoin:round"
       d="M 729,539.86218 L 701,522.86218 L 729,505.86218 L 732,505.86218 L 734,506.86218 L 734,509.86218 L 732,511.86218 L 708,525.86218 L 708,519.86218 L 732,533.86218 L 734,535.86218 L 734,537.86218 L 732,539.86218 L 729,539.86218 z M 860,505.86218 L 889,522.86218 L 860,539.86218 L 858,539.86218 L 856,537.86218 L 856,535.86218 L 857,533.86218 L 881,519.86218 L 881,525.86218 L 857,511.86218 L 856,509.86218 L 856,506.86218 L 858,505.86218 L 860,505.86218 z M 707,519.86218 L 883,519.86218 L 883,525.86218 L 707,525.86218 L 707,519.86218 z "
       sodipodi:nodetypes="ccccccccccccccccccccccccccccccccc"
       id="path5566" />
    <path
       style="fill:#000000;fill-rule:nonzero;stroke:none;stroke-linecap:round;stroke-linejoin:round"
       id="path5568"
       d="M 913,535.86218 L 893,522.86218 L 913,509.86218 L 916,509.86218 L 918,510.86218 L 918,513.86218 L 917,515.86218 L 901,525.86218 L 901,519.86218 L 917,529.86218 L 918,531.86218 L 918,534.86218 L 916,535.86218 L 913,535.86218 z M 965,509.86218 L 985,522.86218 L 965,535.86218 L 962,535.86218 L 960,534.86218 L 960,531.86218 L 961,529.86218 L 977,519.86218 L 977,525.86218 L 961,515.86218 L 960,513.86218 L 960,510.86218 L 962,509.86218 L 965,509.86218 z M 899,519.86218 L 979,519.86218 L 979,525.86218 L 899,525.86218 L 899,519.86218 z " />
    <path
       style="fill:none;fill-rule:nonzero;stroke:#993300;stroke-width:6px;stroke-linecap:butt;stroke-linejoin:round"
       id="path5570"
       d="M 315,570.86218 L 315,474.86218 M 699,570.86218 L 699,474.86218 M 891,570.86218 L 891,474.86218 M 987,570.86218 L 987,474.86218 M 1035,570.86218 L 1035,474.86218 M 1083,570.86218 L 1083,474.86218 M 1059,570.86218 L 1059,474.86218 M 1071,570.86218 L 1071,474.86218 M 1077,570.86218 L 1077,474.86218" />
    <path
       style="fill:none;fill-rule:nonzero;stroke:#000000;stroke-width:6px;stroke-linecap:butt;stroke-linejoin:round"
       id="path5572"
       d="M 993,523.86218 L 1029,523.86218 M 1022,519.86218 L 1029,523.86218 L 1022,527.86218 M 1000,519.86218 L 993,523.86218 L 1000,527.86218 M 1039,523.86218 L 1055,523.86218 L 1052,521.86218 L 1055,523.86218 L 1052,525.86218 M 1043,521.86218 L 1039,523.86218 L 1043,525.86218 M 1062,523.86218 L 1068,523.86218 L 1067,523.86218 L 1068,523.86218 L 1067,524.86218 L 1063,523.86218 L 1062,523.86218 L 1063,524.86218" />
    <g
       id="g5681"
       transform="matrix(5,0,0,5,-224.47412,-3668.0976)">
      <g
         style="font-style:normal;font-variant:normal;font-weight:normal;font-stretch:normal;letter-spacing:normal;word-spacing:normal;text-anchor:start;fill:none;fill-opacity:1;fill-rule:evenodd;stroke:#000000;stroke-linecap:butt;stroke-linejoin:miter;stroke-miterlimit:10.43299961;stroke-dasharray:none;stroke-dashoffset:0;stroke-opacity:1"
         id="g5683"
         xml:space="preserve"
         transform="matrix(0.8571429,0,0,-0.8571429,-150,1246.5)"><path
           style="fill:#000000;stroke-width:0"
           id="path5685"
           d="M 470.64,437.88 L 470.64,437.93 L 470.64,437.99 L 470.64,438.04 L 470.64,438.09 L 470.64,438.14 L 470.64,438.19 L 470.64,438.23 L 470.64,438.28 L 470.64,438.32 L 470.64,438.36 L 470.64,438.4 L 470.64,438.44 L 470.64,438.48 L 470.63,438.52 L 470.63,438.55 L 470.63,438.59 L 470.62,438.62 L 470.62,438.65 L 470.61,438.71 L 470.6,438.76 L 470.58,438.81 L 470.57,438.86 L 470.55,438.9 L 470.53,438.94 L 470.5,438.98 L 470.47,439.01 L 470.44,439.03 L 470.41,439.06 L 470.37,439.08 L 470.32,439.1 L 470.3,439.11 L 470.27,439.12 L 470.25,439.12 L 470.22,439.13 L 470.19,439.14 L 470.16,439.14 L 470.13,439.15 L 470.1,439.15 L 470.07,439.16 L 470.03,439.16 L 469.99,439.16 L 469.96,439.16 L 469.92,439.17 L 469.88,439.17 L 469.84,439.17 L 469.79,439.17 L 469.75,439.17 L 469.7,439.17 L 469.65,439.18 L 469.6,439.18 L 469.55,439.18 L 469.5,439.18 C 466.41,435.99 462.03,435.99 460.43,435.99 L 460.43,434.44 C 461.43,434.44 464.37,434.44 466.96,435.74 L 466.96,409.93 C 466.96,408.14 466.81,407.54 462.33,407.54 L 460.73,407.54 L 460.73,406 C 462.48,406.15 466.81,406.15 468.8,406.15 C 470.79,406.15 475.13,406.15 476.87,406 L 476.87,407.54 L 475.28,407.54 C 470.79,407.54 470.64,408.09 470.64,409.93 L 470.64,437.88 z " /></g>    </g>
    <g
       id="g5750"
       transform="matrix(3,0,0,3,-831.20851,-2248.352)">
      <g
         style="font-style:normal;font-variant:normal;font-weight:normal;font-stretch:normal;letter-spacing:normal;word-spacing:normal;text-anchor:start;fill:none;fill-opacity:1;fill-rule:evenodd;stroke:#000000;stroke-linecap:butt;stroke-linejoin:miter;stroke-miterlimit:10.43299961;stroke-dasharray:none;stroke-dashoffset:0;stroke-opacity:1"
         id="g5752"
         xml:space="preserve"
         transform="matrix(0.8571429,0,0,-0.8571429,-150,1246.5)"><path
           style="fill:#000000;stroke-width:0"
           id="path5754"
           d="M 473.68,448.18 L 473.68,448.22 L 473.68,448.26 L 473.68,448.3 L 473.68,448.34 L 473.68,448.38 L 473.68,448.42 L 473.68,448.45 L 473.68,448.49 L 473.67,448.52 L 473.67,448.55 L 473.67,448.59 L 473.67,448.62 L 473.66,448.64 L 473.66,448.67 L 473.66,448.7 L 473.65,448.73 L 473.65,448.75 L 473.65,448.77 L 473.63,448.82 L 473.62,448.86 L 473.61,448.9 L 473.59,448.93 L 473.57,448.96 L 473.55,448.99 L 473.52,449.02 L 473.5,449.04 L 473.47,449.06 L 473.43,449.08 L 473.4,449.09 L 473.36,449.1 L 473.31,449.12 L 473.26,449.12 L 473.24,449.13 L 473.21,449.13 L 473.18,449.14 L 473.16,449.14 L 473.13,449.14 L 473.1,449.14 L 473.06,449.14 L 473.03,449.15 L 473,449.15 L 472.96,449.15 L 472.93,449.15 L 472.89,449.15 L 472.85,449.15 L 472.81,449.15 L 472.77,449.15 L 472.73,449.15 L 472.68,449.15 L 472.64,449.15 C 470.4,446.96 467.23,446.92 465.8,446.92 L 465.8,445.67 C 466.64,445.67 468.94,445.67 470.86,446.64 L 470.86,428.86 C 470.86,427.71 470.86,427.25 467.37,427.25 L 466.04,427.25 L 466.04,426 C 466.67,426.04 470.96,426.14 472.25,426.14 C 473.33,426.14 477.73,426.04 478.49,426 L 478.49,427.25 L 477.17,427.25 C 473.68,427.25 473.68,427.71 473.68,428.86 L 473.68,448.18 z " /><polyline
           style="fill:#000000;fill-rule:nonzero;stroke-width:0"
           id="polyline5756"
           points="462,418 481.92,418 481.92,420.04 462,420.04 " /><path
           style="fill:#000000;stroke-width:0"
           id="path5758"
           d="M 479.61,395.35 L 478.42,395.35 C 478.32,394.58 477.97,392.52 477.52,392.17 C 477.24,391.96 474.55,391.96 474.07,391.96 L 467.65,391.96 C 471.31,395.21 472.53,396.18 474.62,397.82 C 477.2,399.88 479.61,402.04 479.61,405.36 C 479.61,409.57 475.91,412.15 471.45,412.15 C 467.13,412.15 464.2,409.12 464.2,405.91 C 464.2,404.13 465.7,403.96 466.04,403.96 C 466.88,403.96 467.89,404.55 467.89,405.81 C 467.89,406.43 467.65,407.66 465.84,407.66 C 466.92,410.13 469.29,410.9 470.93,410.9 C 474.41,410.9 476.23,408.18 476.23,405.36 C 476.23,402.32 474.07,399.91 472.95,398.66 L 464.55,390.36 C 464.2,390.05 464.2,389.98 464.2,389 L 478.56,389 L 479.61,395.35 z " /></g>    </g>
    <g
       id="g5884"
       transform="matrix(3,0,0,3,-255.73883,-2248.352)">
      <g
         style="font-style:normal;font-variant:normal;font-weight:normal;font-stretch:normal;letter-spacing:normal;word-spacing:normal;text-anchor:start;fill:none;fill-opacity:1;fill-rule:evenodd;stroke:#000000;stroke-linecap:butt;stroke-linejoin:miter;stroke-miterlimit:10.43299961;stroke-dasharray:none;stroke-dashoffset:0;stroke-opacity:1"
         id="g5886"
         xml:space="preserve"
         transform="matrix(0.8571429,0,0,-0.8571429,-150,1246.5)"><path
           style="fill:#000000;stroke-width:0"
           id="path5888"
           d="M 473.68,448.18 L 473.68,448.22 L 473.68,448.26 L 473.68,448.3 L 473.68,448.34 L 473.68,448.38 L 473.68,448.42 L 473.68,448.45 L 473.68,448.49 L 473.67,448.52 L 473.67,448.55 L 473.67,448.59 L 473.67,448.62 L 473.66,448.64 L 473.66,448.67 L 473.66,448.7 L 473.65,448.73 L 473.65,448.75 L 473.65,448.77 L 473.63,448.82 L 473.62,448.86 L 473.61,448.9 L 473.59,448.93 L 473.57,448.96 L 473.55,448.99 L 473.52,449.02 L 473.5,449.04 L 473.47,449.06 L 473.43,449.08 L 473.4,449.09 L 473.36,449.1 L 473.31,449.12 L 473.26,449.12 L 473.24,449.13 L 473.21,449.13 L 473.18,449.14 L 473.16,449.14 L 473.13,449.14 L 473.1,449.14 L 473.06,449.14 L 473.03,449.15 L 473,449.15 L 472.96,449.15 L 472.93,449.15 L 472.89,449.15 L 472.85,449.15 L 472.81,449.15 L 472.77,449.15 L 472.73,449.15 L 472.68,449.15 L 472.64,449.15 C 470.4,446.96 467.23,446.92 465.8,446.92 L 465.8,445.67 C 466.64,445.67 468.94,445.67 470.86,446.64 L 470.86,428.86 C 470.86,427.71 470.86,427.25 467.37,427.25 L 466.04,427.25 L 466.04,426 C 466.67,426.04 470.96,426.14 472.25,426.14 C 473.33,426.14 477.73,426.04 478.49,426 L 478.49,427.25 L 477.17,427.25 C 473.68,427.25 473.68,427.71 473.68,428.86 L 473.68,448.18 z " /><polyline
           style="fill:#000000;fill-rule:nonzero;stroke-width:0"
           id="polyline5890"
           points="462,418 481.92,418 481.92,420.04 462,420.04 " /><path
           style="fill:#000000;stroke-width:0"
           id="path5892"
           d="M 480.45,394.72 L 480.45,395.97 L 476.57,395.97 L 476.57,411.53 C 476.57,412.26 476.57,412.5 475.81,412.5 C 475.39,412.5 475.25,412.5 474.9,412.01 L 463.36,395.97 L 463.36,394.72 L 473.61,394.72 L 473.86,395.97 L 464.65,395.97 L 473.86,408.73 L 473.86,395.97 L 473.61,394.72 L 473.61,391.86 C 473.61,390.67 473.61,390.25 470.79,390.25 L 469.84,390.25 L 469.84,389 C 471.59,389.07 473.82,389.14 475.07,389.14 C 476.37,389.14 478.6,389.07 480.34,389 L 480.34,390.25 L 479.4,390.25 C 476.57,390.25 476.57,390.67 476.57,391.86 L 476.57,394.72 L 480.45,394.72 z " /></g>    </g>
    <g
       id="g5948"
       transform="matrix(3,0,0,3,30.995997,-2248.452)">
      <g
         style="font-style:normal;font-variant:normal;font-weight:normal;font-stretch:normal;letter-spacing:normal;word-spacing:normal;text-anchor:start;fill:none;fill-opacity:1;fill-rule:evenodd;stroke:#000000;stroke-linecap:butt;stroke-linejoin:miter;stroke-miterlimit:10.43299961;stroke-dasharray:none;stroke-dashoffset:0;stroke-opacity:1"
         id="g5950"
         xml:space="preserve"
         transform="matrix(0.8571429,0,0,-0.8571429,-150,1246.5)"><path
           style="fill:#000000;stroke-width:0"
           id="path5952"
           d="M 473.68,448.18 L 473.68,448.22 L 473.68,448.26 L 473.68,448.3 L 473.68,448.34 L 473.68,448.38 L 473.68,448.42 L 473.68,448.45 L 473.68,448.49 L 473.67,448.52 L 473.67,448.55 L 473.67,448.59 L 473.67,448.62 L 473.66,448.64 L 473.66,448.67 L 473.66,448.7 L 473.65,448.73 L 473.65,448.75 L 473.65,448.77 L 473.63,448.82 L 473.62,448.86 L 473.61,448.9 L 473.59,448.93 L 473.57,448.96 L 473.55,448.99 L 473.52,449.02 L 473.5,449.04 L 473.47,449.06 L 473.43,449.08 L 473.4,449.09 L 473.36,449.1 L 473.31,449.12 L 473.26,449.12 L 473.24,449.13 L 473.21,449.13 L 473.18,449.14 L 473.16,449.14 L 473.13,449.14 L 473.1,449.14 L 473.06,449.14 L 473.03,449.15 L 473,449.15 L 472.96,449.15 L 472.93,449.15 L 472.89,449.15 L 472.85,449.15 L 472.81,449.15 L 472.77,449.15 L 472.73,449.15 L 472.68,449.15 L 472.64,449.15 C 470.4,446.96 467.23,446.92 465.8,446.92 L 465.8,445.67 C 466.64,445.67 468.94,445.67 470.86,446.64 L 470.86,428.86 C 470.86,427.71 470.86,427.25 467.37,427.25 L 466.04,427.25 L 466.04,426 C 466.67,426.04 470.96,426.14 472.25,426.14 C 473.33,426.14 477.73,426.04 478.49,426 L 478.49,427.25 L 477.17,427.25 C 473.68,427.25 473.68,427.71 473.68,428.86 L 473.68,448.18 z " /><polyline
           style="fill:#000000;fill-rule:nonzero;stroke-width:0"
           id="polyline5954"
           points="462,418 481.92,418 481.92,420.04 462,420.04 " /><path
           style="fill:#000000;stroke-width:0"
           id="path5956"
           d="M 474.38,401.59 L 474.63,401.71 L 474.88,401.84 L 475.12,401.97 L 475.35,402.1 L 475.58,402.23 L 475.8,402.37 L 476.02,402.51 L 476.22,402.65 L 476.43,402.79 L 476.62,402.94 L 476.81,403.08 L 476.99,403.23 L 477.16,403.39 L 477.32,403.54 L 477.48,403.7 L 477.63,403.87 L 477.77,404.03 L 477.91,404.2 L 478.03,404.37 L 478.15,404.55 L 478.26,404.73 L 478.36,404.91 L 478.45,405.1 L 478.53,405.29 L 478.6,405.48 L 478.66,405.68 L 478.72,405.88 L 478.76,406.09 L 478.8,406.3 L 478.82,406.51 L 478.84,406.73 L 478.84,406.96 C 478.84,410.34 475.32,412.15 471.94,412.15 L 471.87,411.14 C 474.59,411.14 476.99,409.43 476.99,406.96 C 476.99,403.86 473.37,402.29 473.3,402.29 C 473.23,402.29 473.16,402.32 472.91,402.46 L 468.7,404.9 C 467.79,405.42 466.81,406.36 466.81,407.66 C 466.81,409.85 469.36,411.14 471.87,411.14 L 471.94,412.15 C 468.1,412.15 464.96,409.64 464.96,406.33 C 464.96,404.69 465.73,403.5 466.36,402.81 C 466.98,402.07 467.23,401.94 469.29,400.71 C 467.34,399.88 463.88,398 463.88,394.34 C 463.88,390.46 467.89,388.3 471.87,388.3 L 471.94,389.42 C 468.73,389.42 465.98,391.48 465.98,394.34 C 465.98,396.91 467.89,398.9 470.4,400.05 L 470.4,400.05 C 472.36,398.94 472.43,398.94 475.18,397.3 C 476.09,396.78 477.83,395.73 477.83,393.67 C 477.83,391.06 474.94,389.42 471.94,389.42 L 471.87,388.3 C 476.3,388.3 479.92,391.13 479.92,394.89 C 479.92,397.2 478.56,399.15 476.54,400.33 C 476.09,400.61 474.87,401.31 474.38,401.59 z " /></g>    </g>
    <g
       id="g6104"
       transform="matrix(3,0,0,3,152.95589,-2250.2969)">
      <g
         id="g6106"
         transform="matrix(0.8571429,0,0,-0.8571429,-150,1246.5)"
         style="font-style:normal;font-variant:normal;font-weight:normal;font-stretch:normal;letter-spacing:normal;word-spacing:normal;text-anchor:start;fill:none;fill-opacity:1;fill-rule:evenodd;stroke:#000000;stroke-linecap:butt;stroke-linejoin:miter;stroke-miterlimit:10.43299961;stroke-dasharray:none;stroke-dashoffset:0;stroke-opacity:1"
         xml:space="preserve"><path
           id="path6108"
           d="M 465.56,418.45 L 465.56,418.59 L 465.55,418.72 L 465.53,418.85 L 465.51,418.98 L 465.48,419.11 L 465.44,419.23 L 465.4,419.36 L 465.35,419.48 L 465.3,419.59 L 465.24,419.71 L 465.18,419.82 L 465.11,419.92 L 465.03,420.03 L 464.96,420.13 L 464.87,420.22 L 464.78,420.32 L 464.69,420.4 L 464.6,420.49 L 464.5,420.57 L 464.39,420.64 L 464.29,420.71 L 464.18,420.77 L 464.06,420.83 L 463.95,420.88 L 463.83,420.93 L 463.7,420.97 L 463.58,421.01 L 463.45,421.04 L 463.32,421.06 L 463.19,421.08 L 463.06,421.09 L 462.93,421.09 C 461.48,421.09 460.29,419.9 460.29,418.45 C 460.29,417.01 461.48,415.81 462.93,415.81 C 464.37,415.81 465.56,417.01 465.56,418.45 z "
           style="fill:#000000;stroke-width:0" /><path
           id="path6110"
           d="M 487.56,418.45 L 487.56,418.59 L 487.55,418.72 L 487.53,418.85 L 487.51,418.98 L 487.48,419.11 L 487.44,419.23 L 487.4,419.36 L 487.35,419.48 L 487.3,419.59 L 487.24,419.71 L 487.18,419.82 L 487.11,419.92 L 487.03,420.03 L 486.96,420.13 L 486.87,420.22 L 486.78,420.32 L 486.69,420.4 L 486.6,420.49 L 486.5,420.57 L 486.39,420.64 L 486.29,420.71 L 486.18,420.77 L 486.06,420.83 L 485.95,420.88 L 485.83,420.93 L 485.7,420.97 L 485.58,421.01 L 485.45,421.04 L 485.32,421.06 L 485.19,421.08 L 485.06,421.09 L 484.93,421.09 C 483.48,421.09 482.29,419.9 482.29,418.45 C 482.29,417.01 483.48,415.81 484.93,415.81 C 486.37,415.81 487.56,417.01 487.56,418.45 z "
           style="fill:#000000;stroke-width:0" /><path
           id="path6112"
           d="M 509.56,418.45 L 509.56,418.59 L 509.55,418.72 L 509.53,418.85 L 509.51,418.98 L 509.48,419.11 L 509.44,419.23 L 509.4,419.36 L 509.35,419.48 L 509.3,419.59 L 509.24,419.71 L 509.18,419.82 L 509.11,419.92 L 509.03,420.03 L 508.96,420.13 L 508.87,420.22 L 508.78,420.32 L 508.69,420.4 L 508.6,420.49 L 508.5,420.57 L 508.39,420.64 L 508.29,420.71 L 508.18,420.77 L 508.06,420.83 L 507.95,420.88 L 507.83,420.93 L 507.7,420.97 L 507.58,421.01 L 507.45,421.04 L 507.32,421.06 L 507.19,421.08 L 507.06,421.09 L 506.93,421.09 C 505.48,421.09 504.29,419.9 504.29,418.45 C 504.29,417.01 505.48,415.81 506.93,415.81 C 508.37,415.81 509.56,417.01 509.56,418.45 z "
           style="fill:#000000;stroke-width:0" /></g>    </g>
  </g>
</svg>
